<svg class="svg-icon" style="width: 1.060546875em;height: 1em;vertical-align: middle;fill: currentColor;overflow: hidden;" viewBox="0 0 1086 1024" version="1.1" xmlns="http://www.w3.org/2000/svg"><path d="M947.8998 686.860866a219.505038 219.505038 0 0 0 19.843578-91.07256c0-123.39013-101.591673-223.399282-226.905653-223.399282a227.293526 227.293526 0 0 0-195.394857 110.217967 152.930531 152.930531 0 0 0-56.722535-10.922501c-66.000455 0-121.962758 41.68858-142.628627 99.714368-2.885774-0.155149-5.725004-0.418903-8.641808-0.418903C253.902073 570.948925 186.179463 637.647551 186.179463 719.892123s67.72261 148.943198 151.270435 148.943198H892.108161c55.69855 0 100.846957-44.434721 100.846957-99.279951 0-34.536204-17.904214-64.91441-45.055318-82.694504z" fill="#CCCCCC" /><path d="M21.333476 629.921122c0 28.423327 6.128392 55.341707 16.880229 79.669096A87.116256 87.116256 0 0 0 0.000465 781.951789C0.000465 829.939425 38.213705 868.835321 85.332506 868.835321h62.385479A246.96644 246.96644 0 0 1 93.089964 713.701671c0-129.440948 99.078256-235.609521 225.509311-247.090559A187.839093 187.839093 0 0 0 213.330567 434.41766C107.301628 434.41766 21.333476 521.952819 21.333476 629.921122z" fill="#999999" /><path d="M781.564381 244.359934c-8.176361 0-14.646081 2.668566-20.153876 5.740519a169.360828 169.360828 0 0 0-10.643233-35.823942c3.537401-6.174937 8.005697-12.551567 13.792761-15.887274 19.145407-11.062135 28.516416 3.69255 54.069484-11.062136 13.699671-7.928122 20.883078-33.667369 12.784291-47.677338-56.210542 32.457205-63.285344-3.78564-93.042954 13.389373-7.47819 4.313147-11.915456 10.239845-15.127044 15.918304-8.036727-9.557189-16.72508-18.52481-26.592567-26.220209-0.077575-7.229951 0.605082-15.142558 4.018364-21.007197 11.046621-19.145407 26.530507-11.046621 41.285192-36.615202 7.912607-13.699671 1.241193-39.594067-12.768776-47.677339-32.457205 56.210542-56.67599 28.361267-73.866517 58.118877-4.313147 7.462675-5.181982 14.80123-5.135437 21.317496-11.636187-4.328662-23.629218-7.897092-36.32042-9.681308-3.583946-6.159422-6.857593-13.218709-6.857593-19.890123 0-22.124271 17.454281-22.853472 17.454281-52.362843C624.475852 19.083347 605.749348 0 589.56729 0c0 64.91441-34.908562 52.92138-34.908562 87.28692 0 8.284965 2.730625 14.847775 5.849124 20.371085-12.520538 2.125544-24.342904 5.911183-35.746368 10.550143-6.252511-3.552916-12.706717-8.083271-16.073453-13.91688-11.062135-19.145407 3.677035-28.500902-11.077651-54.069483-7.912607-13.699671-33.667369-20.867563-47.677338-12.768777 32.457205 56.210542-3.770125 63.269829 13.404888 93.027439 4.313147 7.493705 10.270875 11.930971 15.964849 15.158074-9.619248 8.021212-18.633415 16.709565-26.359843 26.561537-7.214436 0.06206-15.080499-0.620597-20.929622-4.002849-19.145407-11.062135-11.062135-26.546022-36.630718-41.300707-13.684156-7.912607-39.594067-1.241193-47.677338 12.784291 56.226057 32.457205 28.376782 56.67599 58.134392 73.866517 7.3851 4.251087 14.615051 5.135437 21.100286 5.135437-4.344177 11.667217-7.959152 23.722307-9.727853 36.444539-6.128392 3.537401-13.06356 6.748989-19.657399 6.748989-22.124271 0-22.853472-17.469796-52.362843-17.469796C329.382141 244.359934 310.298794 263.086438 310.298794 279.268496c64.91441 0 52.905865 34.924077 87.271405 34.924077 8.176361 0 14.646081-2.668566 20.153877-5.740519 2.141058 12.551567 5.957728 24.389449 10.643232 35.823942-3.537401 6.190452-8.005697 12.551567-13.79276 15.887274-19.145407 11.062135-28.516416-3.69255-54.069484 11.062136-13.715186 7.912607-20.883078 33.667369-12.784291 47.677338a137.136346 137.136346 0 0 1 16.72508-8.238421 246.733716 246.733716 0 0 1 132.047453-38.290814c4.5769 0 9.029681 0.434418 13.544523 0.682657 61.159801-58.041302 143.714671-93.772155 234.694141-93.772155 40.571506 0 79.467402 7.121347 115.555097 20.107332 5.073378-6.128392 8.548719-13.311798 8.548719-20.107332-64.91441 0-52.905865-34.924077-87.271405-34.924077z" fill="#FFCC66" /></svg>