<svg class="svg-icon" style="width: 1em;height: 1em;vertical-align: middle;fill: currentColor;overflow: hidden;" viewBox="0 0 1024 1024" version="1.1" xmlns="http://www.w3.org/2000/svg"><path d="M734.841305 770.421425a165.100308 165.100308 0 0 0 14.92531-68.500057c0-92.807658-76.411989-168.029356-170.666667-168.029357a170.958405 170.958405 0 0 0-146.96588 82.90024 115.026416 115.026416 0 0 0-42.663749-8.215339c-49.64212 0-91.734063 31.355989-107.277858 74.999977-2.17053-0.116695-4.306051-0.315077-6.49992-0.315077-62.840342 0-113.777778 50.167248-113.777778 112.03902s50.937436 112.03902 113.777778 112.03902H692.877726c41.893561 0 75.851852-33.444832 75.851852-74.6849 0-26.01135-13.466621-48.860262-33.888273-62.233527z" fill="#CCCCCC" /><path d="M183.631732 630.06049a351.450803 351.450803 0 0 1-35.043556-45.312729c-63.458826 15.485447-110.662017 73.48294-110.662017 142.834871 0 21.390222 4.609459 41.625162 12.696433 59.922963A65.54767 65.54767 0 0 0 21.880575 841.943886c0 36.093812 28.742017 65.360957 64.182336 65.360957h46.923123A185.778689 185.778689 0 0 1 91.897669 790.609687c0-68.406701 36.864-128.061265 91.734063-160.549197z" fill="#999999" /><path d="M322.370604 233.390313c0-22.17208 3.290803-43.550632 9.067213-63.878928C233.635607 197.31984 161.914763 287.116764 161.914763 393.834484c0 76.411989 36.805652 144.153527 93.589516 186.723921h15.858872a220.495499 220.495499 0 0 1 127.20939-46.304639 244.161276 244.161276 0 0 1 141.18947-68.290005C418.36404 457.713413 322.370604 356.877128 322.370604 233.390313z" fill="#666666" /></svg>