<?xml version="1.0" encoding="utf-8"?>
<!-- Generator: Adobe Illustrator 27.0.0, SVG Export Plug-In . SVG Version: 6.00 Build 0)  -->
<svg version="1.1" id="Capa_1" xmlns="http://www.w3.org/2000/svg" xmlns:xlink="http://www.w3.org/1999/xlink" x="0px" y="0px"
	 viewBox="0 0 1024 1024" style="enable-background:new 0 0 1024 1024;" xml:space="preserve">
<style type="text/css">
	.st0{fill:#B7B6B2;}
</style>
<path d="M64,649.8c0-2.6,0-4.3,0-5.9c0-0.3,0-0.6,0-1C64,637.5,64,655.2,64,649.8z"/>
<path class="st0" d="M635.2,443.1c-13.3,0-26.3,1.4-38.8,3.9c-37.8-60.2-104.6-100.4-180.9-100.4c-86.2,0-160.4,51.2-194.1,124.8
	C133.2,478.6,64,549.5,64,636c0,3.6,0,5.6,0,7.8c0.5,71.6,59.2,130,130.9,130h496.2c70.6,0,128.7-56.7,130.9-126.8
	c-0.2-7.7-0.5-17.6-0.5-24.8C821.5,523.3,738.1,443.1,635.2,443.1z M822.1,642.9c0,1.4,0,2.8-0.1,4.1l0.1,2.8
	C822.3,657.9,822.1,634.6,822.1,642.9z"/>
<path d="M959.9,489.1c0,0.6-0.1,1.3-0.1,1.9c0,1.3,0.1,2.6,0.1,3.7C960.1,501.2,959.9,482.4,959.9,489.1L959.9,489.1z"/>
</svg>
