<svg class="svg-icon" style="width: 1.0986328125em;height: 1em;vertical-align: middle;fill: currentColor;overflow: hidden;" viewBox="0 0 1125 1024" version="1.1" xmlns="http://www.w3.org/2000/svg"><path d="M982.387016 647.517116a227.491238 227.491238 0 0 0 20.565542-94.386031c0-127.879405-105.287859-231.543245-235.161108-231.543245a235.498775 235.498775 0 0 0-202.487783 114.228001A158.591043 158.591043 0 0 0 506.50133 424.495949c-68.401734 0-126.41618 43.205326-147.83393 103.358332-2.974688-0.160794-5.917216-0.434144-8.940142-0.434144-86.587526 0-156.774072 69.109227-156.774072 154.362163S263.139732 836.128384 349.727258 836.128384H924.565522c57.725017 0 104.516048-46.083537 104.516048-102.908109 0-35.792727-18.555618-67.276176-46.694554-85.703159z" fill="#CCCCCC" /><path d="M22.109646 588.505747c0 29.457446 6.35136 57.355191 17.494379 82.567678A90.285786 90.285786 0 0 0 0.000482 746.067709C0.000482 795.801269 39.604025 836.128384 88.437138 836.128384h64.655236A255.983921 255.983921 0 0 1 96.476834 675.334464c0-134.150367 102.682997-244.181647 233.713963-256.080397A194.882231 194.882231 0 0 0 221.092122 385.905408C111.189478 385.905408 22.109646 476.609258 22.109646 588.505747z" fill="#999999" /><path d="M893.837804 144.714528c-58.255637 33.638088-65.58784-3.923372-96.428114 13.876515-7.750267 4.470071-12.332894 10.612399-15.677407 16.513536-8.329125-9.920985-17.333585-19.214873-27.560078-27.190252-0.080397-7.492997 0.643176-15.677407 4.164563-21.771497 11.464606-19.84197 27.49576-11.448527 42.787262-37.947365 8.20049-14.198103 1.286351-41.034608-13.23334-49.411972-33.638088 58.255637-58.738019 29.393129-76.553985 60.233403-4.470071 7.734188-5.370517 15.33974-5.322279 22.093085-12.059544-4.48615-24.504993-8.184411-37.625777-10.033541-3.730419-6.383519-7.123171-13.699642-7.123171-20.613781 0-22.929213 18.089316-23.684944 18.089316-54.267948C679.354794 19.777652 659.946968 0 643.176162 0c0 67.276176-36.178632 54.814647-36.178632 90.44658 0 8.586395 2.829973 15.371899 6.061931 21.112242-12.95999 2.186797-25.212487 6.09409-37.046919 10.917907-6.479995-3.682181-13.169022-8.377363-16.65825-14.423215-11.464606-19.84197 3.826895-29.537843-11.480686-56.036681-8.20049-14.198103-34.892281-21.642862-49.411972-13.23334 33.638088 58.255637-3.907292 65.571761 13.892595 96.412035 4.470071 7.766346 10.644558 12.381132 16.545694 15.725645-9.969223 8.296966-19.31135 17.301426-27.318887 27.51184-7.476917 0.064318-15.629169-0.643176-21.691099-4.148483-19.84197-11.464606-11.464606-27.51184-37.947366-42.803342-14.214183-8.20049-41.034608-1.286351-49.411971 13.249419 58.255637 33.638088 29.393129 58.738019 60.233402 76.553986 7.653791 4.405753 15.162867 5.322279 21.867973 5.322278-4.518309 12.091703-8.248728 24.58539-10.081778 37.770492-6.35136 3.682181-13.538848 6.994536-20.37259 6.994536-22.929213 0-23.684944-18.089316-54.267948-18.089316-16.40098 0-36.178632 19.391747-36.178632 36.162552 67.276176 0 54.830727 36.194711 90.44658 36.194712 8.47384 0 15.178946-2.765655 20.88713-5.933296 0.369826 2.235035 1.077319 4.357515 1.559701 6.544313 15.548772-2.974688 31.515608-4.663024 47.916588-4.663024 4.711262 0 9.309968 0.450223 13.956913 0.707493a352.219082 352.219082 0 0 1 283.688713-94.836254c-0.675334-1.768733-1.205954-3.633943-1.929527-5.386596 3.666101-6.431757 8.296966-13.024308 14.294579-16.481377 19.84197-11.448527 29.553922 3.826895 56.036681-11.464606 14.182024-8.20049 21.626782-34.90836 13.249419-49.411972z" fill="#FFCC66" /><path d="M310.348827 1024l60.603229-17.18887s12.541926-105.995352 12.236417-106.172225c-0.160794-0.096476-87.922115 63.433201-87.922115 63.433201l15.082469 59.927894z m563.759563-59.927894l15.08247 59.927894 60.603228-17.18887s12.541926-105.995352 12.236418-106.172225c-0.160794-0.096476-87.922115 63.433201-87.922116 63.433201z m-274.330507 59.927894l60.603229-17.18887s12.541926-105.995352 12.236417-106.172225c-0.160794-0.096476-87.922115 63.433201-87.922115 63.433201l15.082469 59.927894z" fill="#54BBFF" /></svg>