<svg class="svg-icon" style="width: 1em;height: 1em;vertical-align: middle;fill: currentColor;overflow: hidden;" viewBox="0 0 1024 1024" version="1.1" xmlns="http://www.w3.org/2000/svg"><path d="M740.214362 744.181878a169.081182 169.081182 0 0 0 15.285187-70.151721c0-95.045423-78.254423-172.092806-174.781756-172.092806a175.080528 175.080528 0 0 0-150.5095 84.899118A117.799916 117.799916 0 0 0 386.515841 578.423043c-50.839083 0-93.957892 32.11204-109.864525 76.820316-2.222865-0.119509-4.409878-0.322674-6.656645-0.322674-64.355539 0-116.521171 51.364922-116.521171 114.728538S205.639132 884.365809 269.994671 884.365809H697.238964c42.903693 0 77.680781-34.251249 77.68078-76.485691 0-26.60268-13.791326-50.002521-34.705382-63.69824z" fill="#CCCCCC" /><path d="M175.714105 600.436581a360.869054 360.869054 0 0 1-35.888521-46.393352c-64.976985 15.870781-113.330283 75.242799-113.330283 146.278885 0 21.894029 4.720601 42.628822 13.002567 61.367816A67.104243 67.104243 0 0 0 10.062828 817.428878C10.062828 854.392979 39.497868 884.365809 75.792719 884.365809h48.054526A190.258158 190.258158 0 0 1 81.768164 764.856916c0-70.056113 37.752859-131.149059 93.945941-164.420335z" fill="#999999" /><path d="M422.691183 272.205406C322.53078 300.684375 249.080614 392.634518 249.080614 501.937351c0 16.408571 1.840437 32.351057 5.043276 47.803557h11.532608a225.668643 225.668643 0 0 1 130.192988-47.421128 251.398908 251.398908 0 0 1 53.026096-39.820364 236.938332 236.938332 0 0 1-35.458289-124.886793c-0.011951-22.70669 3.3582-44.588768 9.27389-65.407217z" fill="#666666" /><path d="M240.726943 1024l45.042902-12.775501s9.321694-78.780262 9.094626-78.911722c-0.119509-0.071705-65.347463 47.146258-65.347462 47.146259l11.209934 44.540964z m419.01013-44.540964l11.209934 44.540964 45.042902-12.775501 9.094627-78.911722-65.347463 47.146259z m-203.894123 44.540964l45.042902-12.775501s9.321694-78.780262 9.094627-78.911722c-0.119509-0.071705-65.347463 47.146258-65.347463 47.146259l11.209934 44.540964z" fill="#54BBFF" /></svg>