<svg class="svg-icon" style="width: 1.0927734375em;height: 1em;vertical-align: middle;fill: currentColor;overflow: hidden;" viewBox="0 0 1119 1024" version="1.1" xmlns="http://www.w3.org/2000/svg"><path d="M976.966329 643.944198a226.23597 226.23597 0 0 0 20.452064-93.865221c0-127.189773-104.706894-230.265618-233.863519-230.265618-85.869887 0-160.706213 45.685338-201.370481 113.597705A157.715958 157.715958 0 0 0 503.70652 422.153634c-68.024301 0-125.718631 42.966925-147.018201 102.788013-2.958274-0.159907-5.884566-0.431748-8.890811-0.431748-86.109747 0-155.909012 68.727891-155.909013 153.510413S261.687761 831.514733 347.797508 831.514733H919.463887c57.406498 0 103.939342-45.829254 103.939341-102.340275 0-35.595227-18.453231-66.904955-46.436899-85.23026z" fill="#CCCCCC" /><path d="M21.987648 585.258447c0 29.294904 6.316314 57.022722 17.397847 82.12807A89.739629 89.739629 0 0 0 0.00048 741.951002C0.00048 791.410138 39.385495 831.514733 87.949153 831.514733h64.298476A254.571434 254.571434 0 0 1 95.944487 671.608054c0-133.410143 102.116406-242.834283 232.424359-254.667378a193.551045 193.551045 0 0 0-108.496682-33.180636c-109.296215 0-197.884516 90.219349-197.884516 201.498407z" fill="#999999" /><path d="M888.90572 143.900021c-57.93419 33.468468-65.225935-3.885732-95.896035 13.815937-7.707502 4.445406-12.264842 10.569832-15.590902 16.406425-8.283166-9.850251-17.23794-19.092858-27.408005-27.024229-0.079953-7.451651 0.639627-15.590901 4.141583-21.651364 11.401346-19.732484 27.344042-11.385356 42.551168-37.737976 8.155241-14.11976 1.279253-40.808185-13.16032-49.139323-33.452477 57.93419-58.41391 29.230941-76.13157 59.901042-4.445406 7.691511-5.340883 15.255097-5.292911 21.971178-11.993001-4.461396-24.369778-8.13925-37.418163-9.978177-3.709835-6.348295-7.083866-13.64004-7.083866-20.500036 0-22.802692 17.989501-23.554254 17.989501-53.968504C675.6062 19.668522 656.305464 0 639.627198 0c0 66.888964-35.979003 54.528178-35.979003 89.947507 0 8.539017 2.814358 15.287079 6.028482 20.995747-12.888478 2.190722-25.073367 6.076454-36.842499 10.873654-6.444239-3.661863-13.096357-8.331138-16.566332-14.343629-11.401346-19.732484 3.805779-29.374857-11.417337-55.727478-8.155241-14.13575-34.699749-21.523439-49.139323-13.208291 33.452477 57.950181-3.885732 65.225935 13.815937 95.896035 4.445406 7.723493 10.585822 12.312814 16.454397 15.622883-9.914214 8.267175-19.204792 17.221949-27.168144 27.376024-7.435661 0.063963-15.542929-0.639627-21.571411-4.125593-19.732484-11.401346-11.401346-27.360033-37.737977-42.567158-14.13575-8.155241-40.808185-1.279253-49.139322 13.16032 57.93419 33.468468 29.230941 58.429901 59.901042 76.147561 7.611558 4.381443 15.0792 5.292911 21.747308 5.292911-4.493378 12.024982-8.203213 24.449731-10.026149 37.562079-6.316314 3.645872-13.464142 6.955941-20.260176 6.95594-22.802692 0-23.554254-17.989501-53.968504-17.989501-16.310481 0-35.979003 19.284746-35.979003 35.963012 66.904955 0 54.528178 35.979003 89.947507 35.979003 8.427082 0 15.095191-2.734404 20.771878-5.884566 0.367785 2.222703 1.071375 4.333471 1.551095 6.508202 15.462976-2.942283 31.341709-4.621303 47.65219-4.621303 4.685266 0 9.258597 0.447739 13.8799 0.703589a350.275581 350.275581 0 0 1 282.123354-94.312959c-0.671608-1.758973-1.215291-3.629882-1.93487-5.372865 3.645872-6.380277 8.251185-12.93645 14.215703-16.374444 19.732484-11.385356 29.390848 3.805779 55.727478-11.401346 14.11976-8.155241 21.523439-34.699749 13.192301-49.155313z" fill="#FFCC66" /><path d="M495.711186 675.445814c-15.303069-9.130671-34.859656-3.709835-43.686505 12.120926l-95.944007 158.835305c-8.826849 15.830761-3.5979 36.090938 11.705168 45.221609 15.287079 9.130671 34.859656 3.709835 43.670515-12.120926l95.944007-158.819314c8.842839-15.846752 3.5979-36.074947-11.689178-45.2376z m191.888015 0c-15.303069-9.130671-34.859656-3.709835-43.686504 12.120926l-159.90668 286.760649c-8.826849 15.830761-3.5979 36.090938 11.705169 45.221609 15.287079 9.130671 34.859656 3.709835 43.670514-12.120927l159.90668-286.744657c8.842839-15.846752 3.613891-36.074947-11.689179-45.2376z m191.888016 0c-15.303069-9.130671-34.859656-3.709835-43.686505 12.120926l-95.944008 158.835305c-8.826849 15.830761-3.5979 36.090938 11.705169 45.221609 15.287079 9.130671 34.859656 3.709835 43.670514-12.120926l95.944008-158.819314c8.842839-15.846752 3.5979-36.074947-11.689178-45.2376z" fill="#48A0DC" /></svg>