<svg class="svg-icon" style="width: 1em;height: 1em;vertical-align: middle;fill: currentColor;overflow: hidden;" viewBox="0 0 1024 1024" version="1.1" xmlns="http://www.w3.org/2000/svg"><path d="M739.2771 741.125569a168.386776 168.386776 0 0 0 15.222412-69.863611c0-94.666979-77.933037-171.386032-174.063939-171.386032a174.361484 174.361484 0 0 0-149.891367 84.550442A117.316119 117.316119 0 0 0 387.031197 576.047496c-50.63029 0-93.572013 31.980157-109.413319 76.50482-2.213736-0.119018-4.391767-0.321349-6.629307-0.321349-64.091235 0-116.042626 51.15397-116.042625 114.257355S206.897337 880.733774 270.988571 880.733774H696.478199c42.72749 0 77.36175-34.110581 77.36175-76.171569 0-26.493424-13.734686-49.797164-34.562849-63.436636z" fill="#CCCCCC" /><path d="M177.09521 597.970626a358.446744 358.446744 0 0 1-35.741129-46.21472c-64.722031 15.793699-112.864843 74.945683-112.864843 145.678127 0 21.804112 4.701214 42.441846 12.949167 61.127685A66.828651 66.828651 0 0 0 12.124253 814.071749C12.124253 850.88404 41.438405 880.733774 77.584195 880.733774h47.857169A189.47678 189.47678 0 0 1 83.535099 761.715697c0-69.768397 37.597811-130.610438 93.560111-163.745071z" fill="#999999" /><path d="M423.057969 271.087475C323.308918 299.449483 250.160408 391.021992 250.160408 499.875926c0 16.341182 1.820977 32.206292 5.022563 47.595329h11.497146a224.610916 224.610916 0 0 1 129.646392-47.214471 250.366428 250.366428 0 0 1 52.808321-39.656824 235.965241 235.965241 0 0 1-35.312664-124.373891c-0.011902-22.613435 3.344408-44.405645 9.235803-65.138594z" fill="#666666" /><path d="M381.080293 764.572131c-11.39003-6.795932-25.945941-2.761219-32.515739 9.02157l-71.410846 118.220656c-6.569798 11.78279-2.677907 26.86238 8.712123 33.658313 11.378128 6.795932 25.945941 2.761219 32.503837-9.021571l71.422748-118.208754c6.569798-11.794691 2.666005-26.850478-8.712123-33.670214z m142.821693 0c-11.39003-6.795932-25.945941-2.761219-32.515739 9.02157l-119.018077 213.435118c-6.569798 11.78279-2.677907 26.86238 8.712123 33.658313 11.378128 6.795932 25.945941 2.761219 32.515739-9.02157l119.006176-213.423217c6.5817-11.794691 2.677907-26.850478-8.700222-33.670214z m142.821693 0c-11.39003-6.795932-25.945941-2.761219-32.515738 9.02157l-71.410847 118.220656c-6.569798 11.78279-2.677907 26.86238 8.712123 33.658313s25.945941 2.761219 32.515739-9.021571l71.410847-118.208754c6.569798-11.794691 2.666005-26.850478-8.712124-33.670214z" fill="#48A0DC" /></svg>