<svg class="svg-icon" style="width: 1.09375em;height: 1em;vertical-align: middle;fill: currentColor;overflow: hidden;" viewBox="0 0 1120 1024" version="1.1" xmlns="http://www.w3.org/2000/svg"><path d="M977.53648 644.32a226.368 226.368 0 0 0 20.464-93.92c0-127.248-104.768-230.4-234-230.4a234.336 234.336 0 0 0-201.488 113.664A157.808 157.808 0 0 0 504.00048 422.4c-68.064 0-125.792 42.992-147.104 102.848-2.96-0.16-5.888-0.432-8.896-0.432-86.16 0-156 68.768-156 153.6S261.84048 832 348.00048 832H920.00048c57.44 0 104-45.856 104-102.4 0-35.616-18.464-66.944-46.464-85.28z" fill="#999999" /><path d="M22.00048 585.6c0 29.312 6.32 57.056 17.408 82.16A89.84 89.84 0 0 0 0.00048 742.384C0.00048 791.872 39.39248 832 88.00048 832h64.336A254.72 254.72 0 0 1 96.00048 672c0-133.488 102.176-242.976 232.56-254.816A193.92 193.92 0 0 0 220.00048 384C110.64048 384 22.00048 474.256 22.00048 585.6z" fill="#808080" /><path d="M889.42448 144c-57.968 33.472-65.264-3.904-95.952 13.808-7.712 4.448-12.288 10.56-15.6 16.432-8.288-9.872-17.248-19.12-27.424-27.056-0.08-7.456 0.624-15.6 4.144-21.664 11.392-19.744 27.36-11.408 42.576-37.76 8.16-14.128 1.28-40.832-13.168-49.168-33.472 57.968-58.448 29.248-76.176 59.936-4.448 7.696-5.344 15.264-5.312 21.984-11.984-4.464-24.368-8.144-37.44-9.968-3.696-6.368-7.072-13.648-7.072-20.544 0-22.8 18-23.552 18-53.984C676.00048 19.68 656.68848 0 640.00048 0c0 66.944-36 54.56-36 89.984 0 8.56 2.816 15.328 6.032 21.008-12.912 2.192-25.104 6.08-36.864 10.88-6.448-3.664-13.104-8.336-16.576-14.352-11.408-19.744 3.792-29.392-11.424-55.76-8.16-14.128-34.72-21.52-49.168-13.2 33.472 57.984-3.888 65.264 13.824 95.952 4.448 7.728 10.592 12.32 16.464 15.648-9.92 8.256-19.216 17.216-27.184 27.376-7.44 0.064-15.552-0.64-21.584-4.128-19.744-11.408-11.408-27.376-37.776-42.592-14.128-8.16-40.832-1.28-49.168 13.184 57.968 33.472 29.248 58.448 59.952 76.176 7.616 4.384 15.072 5.296 21.76 5.296-4.496 12.032-8.208 24.464-10.048 37.584-6.304 3.664-13.456 6.96-20.256 6.96-22.816 0-23.568-18-54-18C371.68048 252 352.00048 271.312 352.00048 288c66.944 0 54.56 36 90 36 8.432 0 15.104-2.752 20.784-5.92 0.368 2.24 1.072 4.336 1.552 6.512A256.896 256.896 0 0 1 512.00048 320c4.688 0 9.264 0.448 13.888 0.704a350.48 350.48 0 0 1 282.288-94.368c-0.688-1.76-1.216-3.632-1.936-5.376 3.664-6.384 8.272-12.944 14.24-16.384 19.744-11.408 29.408 3.808 55.76-11.408 14.112-8.16 21.52-34.72 13.184-49.168z" fill="#FFCC66" /><path d="M768.00048 704h-96l72.416-288L448.00048 768h96l-32 256z" fill="#FFCC66" /></svg>