<svg class="svg-icon" style="width: 1em;height: 1em;vertical-align: middle;fill: currentColor;overflow: hidden;" viewBox="0 0 1024 1024" version="1.1" xmlns="http://www.w3.org/2000/svg"><path d="M739.375807 741.447442a168.459907 168.459907 0 0 0 15.229023-69.893954c0-94.696186-77.966884-171.460465-174.139535-171.460465a174.437209 174.437209 0 0 0-149.956465 84.587163A117.36707 117.36707 0 0 0 386.976923 576.297674c-50.652279 0-93.612651 31.994047-109.460837 76.538047-2.214698-0.11907-4.393674-0.321488-6.632186-0.321488-64.11907 0-116.093023 51.176186-116.093024 114.306976S206.76483 881.116279 270.8839 881.116279H696.558318c42.746047 0 77.395349-34.125395 77.395349-76.204651 0-26.50493-13.740651-49.818791-34.57786-63.464186z" fill="#999999" /><path d="M176.94976 598.230326a359.54307 359.54307 0 0 1-35.756651-46.222884c-64.738233 15.812465-112.91386 74.966326-112.913861 145.741395 0 21.813581 4.703256 42.460279 12.954791 61.142326A66.857674 66.857674 0 0 0 11.907155 814.425302C11.907155 851.253581 41.222132 881.116279 77.395527 881.116279h47.877954A189.55907 189.55907 0 0 1 83.349016 762.046512c0-69.798698 37.61414-130.667163 93.600744-163.816186z" fill="#808080" /><path d="M423.019341 271.205209C323.226969 299.579535 250.04669 391.191814 250.04669 500.093023c0 16.348279 1.833674 32.232186 5.036651 47.627907h11.478326a224.684651 224.684651 0 0 1 129.702698-47.234977 250.915721 250.915721 0 0 1 52.843162-39.685953 236.067721 236.067721 0 0 1-35.328-124.427907c-0.011907-22.623256 3.34586-44.42493 9.239814-65.166884z" fill="#666666" /><path d="M583.442039 785.860465h-71.44186l53.890976-214.325581L345.302504 833.488372h71.441861l-23.813954 190.511628z" fill="#FFCC66" /></svg>