<svg class="svg-icon" style="width: 1.0927734375em;height: 1em;vertical-align: middle;fill: currentColor;overflow: hidden;" viewBox="0 0 1119 1024" version="1.1" xmlns="http://www.w3.org/2000/svg"><path d="M977.521206 644.325932a226.364463 226.364463 0 0 0 20.46368-93.918532c0-127.246012-104.766363-230.3804-233.996343-230.3804-85.918658 0-160.797488 45.711286-201.484852 113.662224a157.805534 157.805534 0 0 0-58.511086-11.263824c-68.062937 0-125.790035 42.991328-147.101701 102.846393-2.959954-0.159998-5.887908-0.431993-8.895861-0.431994-86.158654 0-155.997563 68.766926-155.997563 153.5976s69.838909 153.6136 155.997563 153.6136H919.986105c57.439103 0 103.998375-45.855284 103.998375-102.3984 0-35.663443-18.463712-66.990953-46.463274-85.326667z" fill="#CCCCCC" /><path d="M22.000136 585.60685c0 29.311542 6.319901 57.071108 17.407728 82.158716A89.838596 89.838596 0 0 0 0.00048 742.3884c0 49.487227 39.391385 89.6146 87.998625 89.6146h64.334995a254.71602 254.71602 0 0 1-56.33512-159.9975c0-133.485914 102.174404-242.972204 232.556366-254.812019a193.772972 193.772972 0 0 0-108.558303-33.183481c-109.358291 0-197.996906 90.25459-197.996907 201.59685z" fill="#999999" /><path d="M889.410583 144.01375c-57.967094 33.455477-65.26298-3.903939-95.950501 13.807784-7.71188 4.46393-12.271808 10.575835-15.599756 16.415744-8.287871-9.855846-17.247731-19.103702-27.423572-27.039578-0.079999-7.455884 0.62399-15.599756 4.143936-21.663661 11.391822-19.743692 27.359573-11.391822 42.575334-37.75941 8.159873-14.127779 1.27998-40.831362-13.167794-49.167232-33.471477 57.967094-58.447087 29.247543-76.17481 59.935063-4.447931 7.69588-5.343917 15.263762-5.295917 21.983657-11.999813-4.46393-24.383619-8.143873-37.455415-9.983844-3.695942-6.351901-7.07189-13.647787-7.071889-20.51168 0-22.815644 17.999719-23.567632 17.999719-53.999156C675.989918 19.695692 656.678219 0 639.99048 0c0 66.958954-35.999438 54.575147-35.999437 90.014594 0 8.543867 2.815956 15.295761 6.031905 21.007671-12.895799 2.191966-25.103608 6.079905-36.863424 10.87983-6.447899-3.663943-13.103795-8.33587-16.575741-14.351775-11.407822-19.743692 3.791941-29.391541-11.423821-55.759129-8.159873-14.143779-34.719458-21.551663-49.167232-13.199794 33.471477 57.967094-3.887939 65.246981 13.823784 95.934501 4.447931 7.727879 10.591835 12.303808 16.463743 15.631756-9.919845 8.271871-19.2157 17.231731-27.183575 27.391572-7.439884 0.063999-15.551757-0.63999-21.583663-4.127936-19.743692-11.407822-11.407822-27.375572-37.75941-42.591334-14.143779-8.159873-40.831362-1.27998-49.183232 13.183794 57.983094 33.455477 29.247543 58.447087 59.951064 76.15881 7.615881 4.399931 15.071765 5.327917 21.75966 5.311917-4.49593 12.031812-8.207872 24.463618-10.031844 37.583413-6.319901 3.647943-13.47179 6.959891-20.271683 6.959891-22.815644 0-23.567632-17.999719-53.999156-17.999719C371.674673 252.012062 351.99498 271.307761 351.99498 287.9955c66.942954 0 54.559148 36.015437 89.998594 36.015437 8.431868 0 15.103764-2.751957 20.783675-5.903907 0.367994 2.223965 1.071983 4.335932 1.551976 6.511898A255.676005 255.676005 0 0 1 511.99248 320.011c4.687927 0 9.263855 0.447993 13.887783 0.703989a350.474524 350.474524 0 0 1 282.26759-94.366526c-0.67199-1.759973-1.215981-3.615944-1.93597-5.359916 3.663943-6.3999 8.271871-12.959798 14.239777-16.399744 19.743692-11.391822 29.407541 3.807941 55.759129-11.407821 14.127779-8.175872 21.535664-34.719458 13.199794-49.167232z" fill="#FFCC66" /><path d="M753.460707 900.289933l-85.230668-52.287183 85.230668-52.287183c14.399775-8.847862 19.343698-28.399556 11.023828-43.711317-8.33587-15.311761-26.751582-20.543679-41.151357-11.711817L639.99048 791.411634v-87.406634a31.9995 31.9995 0 0 0-63.999 0v87.422634l-83.358697-51.135201c-14.399775-8.831862-32.831487-3.599944-41.135358 11.711817s-3.375947 34.879455 11.023828 43.711317l85.230668 52.287183-85.230668 52.287183c-14.399775 8.847862-19.343698 28.399556-11.023828 43.711317s26.735582 20.543679 41.135358 11.695817L575.99148 904.577866v87.422634a31.9995 31.9995 0 0 0 63.999 0v-87.422634l83.342698 51.119201c14.399775 8.847862 32.831487 3.615944 41.151357-11.695817s3.375947-34.879455-11.023828-43.711317z" fill="#48A0DC" /></svg>