<svg class="svg-icon" style="width: 1em;height: 1em;vertical-align: middle;fill: currentColor;overflow: hidden;" viewBox="0 0 1024 1024" version="1.1" xmlns="http://www.w3.org/2000/svg"><path d="M739.375807 741.447442a168.459907 168.459907 0 0 0 15.229023-69.893954c0-94.708093-77.966884-171.460465-174.139535-171.460465-63.940465 0-119.665116 34.018233-149.944558 84.587163A117.438512 117.438512 0 0 0 386.976923 576.297674c-50.652279 0-93.612651 31.994047-109.472744 76.538047-2.202791-0.11907-4.381767-0.321488-6.620279-0.321488-64.11907 0-116.093023 51.176186-116.093024 114.306976S206.76483 881.116279 270.8839 881.116279H696.558318c42.746047 0 77.395349-34.125395 77.395349-76.204651 0-26.50493-13.740651-49.818791-34.57786-63.464186z" fill="#CCCCCC" /><path d="M176.94976 598.230326a358.483349 358.483349 0 0 1-35.756651-46.222884c-64.738233 15.812465-112.91386 74.966326-112.913861 145.741395 0 21.813581 4.703256 42.472186 12.954791 61.142326A66.857674 66.857674 0 0 0 11.907155 814.425302C11.907155 851.253581 41.222132 881.116279 77.395527 881.116279h47.877954A189.55907 189.55907 0 0 1 83.349016 762.046512c0-69.798698 37.61414-130.667163 93.600744-163.816186z" fill="#999999" /><path d="M423.019341 271.193302C323.226969 299.567628 250.04669 391.191814 250.04669 500.093023c0 16.348279 1.833674 32.232186 5.024744 47.627907h11.478326a224.839442 224.839442 0 0 1 129.714605-47.246883 250.713302 250.713302 0 0 1 52.819348-39.674047 236.067721 236.067721 0 0 1-35.328-124.427907c0.011907-22.623256 3.369674-44.436837 9.263628-65.178791z" fill="#666666" /><path d="M572.630504 931.935256L509.202039 893.023256l63.428465-38.912c10.716279-6.584558 14.395535-21.134884 8.203907-32.529861-6.203535-11.394977-19.908465-15.288558-30.624744-8.715907L488.186225 850.908279V785.860465a23.813953 23.813953 0 0 0-47.627907 0v65.059721l-62.035349-38.054698c-10.716279-6.572651-24.433116-2.67907-30.612837 8.715907s-2.512372 25.957209 8.203907 32.529861L419.542504 893.023256l-63.428465 38.912c-10.716279 6.584558-14.395535 21.134884-8.203907 32.52986s19.896558 15.288558 30.612837 8.704L440.558318 935.126326V1000.186047a23.813953 23.813953 0 0 0 47.627907 0v-65.059721l62.023442 38.04279c10.716279 6.584558 24.433116 2.690977 30.624744-8.704s2.512372-25.957209-8.203907-32.52986z" fill="#48A0DC" /></svg>