<svg class="svg-icon" style="width: 1.0927734375em;height: 1em;vertical-align: middle;fill: currentColor;overflow: hidden;" viewBox="0 0 1119 1024" version="1.1" xmlns="http://www.w3.org/2000/svg"><path d="M977.537046 644.325932a226.364463 226.364463 0 0 0 20.46368-93.918532c0-127.230012-104.766363-230.3804-233.996344-230.3804a234.332339 234.332339 0 0 0-201.484851 113.662224 157.741535 157.741535 0 0 0-58.511086-11.263824c-68.062937 0-125.790035 42.991328-147.101702 102.846393-2.959954-0.159998-5.887908-0.431993-8.895861-0.431994-86.158654 0-155.997563 68.766926-155.997562 153.5976s69.838909 153.6136 155.997562 153.6136H919.985945c57.439103 0 103.998375-45.855284 103.998375-102.3984 0-35.663443-18.463712-66.990953-46.447274-85.326667z" fill="#CCCCCC" /><path d="M21.999976 585.60685c0 29.311542 6.303902 57.055109 17.391729 82.174716A89.854596 89.854596 0 0 0 0.00032 742.3884c0 49.487227 39.407384 89.6146 87.998625 89.6146h64.334995a254.71602 254.71602 0 0 1-56.33512-159.9975c0-133.485914 102.174404-242.972204 232.572366-254.812019a193.836971 193.836971 0 0 0-108.574303-33.183481c-109.342292 0-197.996906 90.25459-197.996907 201.59685z" fill="#999999" /><path d="M889.410423 144.01375c-57.983094 33.471477-65.26298-3.903939-95.950501 13.807784-7.71188 4.46393-12.287808 10.559835-15.599756 16.415744-8.287871-9.855846-17.26373-19.103702-27.423572-27.039578-0.063999-7.455884 0.63999-15.599756 4.127936-21.663661 11.407822-19.743692 27.359573-11.391822 42.591334-37.75941 8.159873-14.127779 1.27998-40.831362-13.167794-49.167232-33.471477 57.967094-58.447087 29.247543-76.17481 59.951063-4.447931 7.67988-5.343917 15.247762-5.311917 21.967657-11.999813-4.46393-24.367619-8.143873-37.439415-9.983844-3.711942-6.351901-7.087889-13.631787-7.087889-20.527679 0-22.799644 17.999719-23.551632 17.999719-53.983157C675.989758 19.679693 656.678059 0 639.99032 0c0 66.942954-35.999438 54.575147-35.999437 89.998594 0 8.559866 2.815956 15.327761 6.031905 21.023671-12.911798 2.175966-25.103608 6.063905-36.863424 10.863831-6.447899-3.663943-13.103795-8.33587-16.59174-14.351776-11.407822-19.743692 3.807941-29.391541-11.407822-55.759129-8.159873-14.127779-34.719458-21.519664-49.167232-13.183794 33.471477 57.983094-3.887939 65.26298 13.823784 95.950501 4.46393 7.727879 10.591835 12.319808 16.463743 15.631756-9.903845 8.271871-19.1997 17.231731-27.183575 27.391572-7.423884 0.063999-15.535757-0.63999-21.583663-4.127936-19.743692-11.407822-11.391822-27.375572-37.75941-42.591334-14.127779-8.159873-40.831362-1.27998-49.167232 13.183794 57.967094 33.471477 29.247543 58.447087 59.935064 76.174809 7.615881 4.383932 15.087764 5.295917 21.775659 5.279918-4.49593 12.047812-8.207872 24.479618-10.031843 37.599412-6.303902 3.647943-13.45579 6.959891-20.255683 6.959892-22.815644 0-23.551632-17.999719-53.999157-17.999719-16.319745 0-35.999438 19.311698-35.999437 35.983438 66.942954 0 54.559148 35.999438 89.998594 35.999437 8.431868 0 15.119764-2.735957 20.783675-5.887908 0.367994 2.223965 1.071983 4.335932 1.551976 6.495899 15.455759-2.911955 31.35951-4.591928 47.663255-4.591929 4.687927 0 9.263855 0.447993 13.887783 0.703989 63.087014-59.871065 148.253684-96.702489 242.108217-96.702489 13.599788 0 26.991578 0.847987 40.175372 2.335964-0.67199-1.759973-1.215981-3.631943-1.93597-5.375916 3.647943-6.3839 8.255871-12.943798 14.239778-16.383744 19.743692-11.407822 29.391541 3.807941 55.759129-11.407822 14.11178-8.191872 21.519664-34.751457 13.167794-49.199231z" fill="#FFCC66" /><path d="M447.99332 768.004h127.998a31.9995 31.9995 0 0 0 0-63.999h-127.998a31.9995 31.9995 0 0 0 0 63.999z m351.9945 63.999H447.99332a31.9995 31.9995 0 0 0 0 63.999h351.9945a31.9995 31.9995 0 0 1 0 63.999 31.9995 31.9995 0 1 0 0 63.999 95.9985 95.9985 0 0 0 0-191.997z m127.998-255.996a31.9995 31.9995 0 0 0 0 63.999 31.9995 31.9995 0 0 1 0 63.999H703.98932a31.9995 31.9995 0 0 0 0 63.999h223.9965a95.9985 95.9985 0 0 0 0-191.997z" fill="#48A0DC" /></svg>