<svg class="svg-icon" style="width: 1em;height: 1em;vertical-align: middle;fill: currentColor;overflow: hidden;" viewBox="0 0 1024 1024" version="1.1" xmlns="http://www.w3.org/2000/svg"><path d="M739.375985 741.447442a168.459907 168.459907 0 0 0 15.229023-69.893954c0-94.696186-77.966884-171.460465-174.139535-171.460465a174.389581 174.389581 0 0 0-149.944558 84.587163A117.438512 117.438512 0 0 0 386.977101 576.297674c-50.652279 0-93.612651 31.994047-109.472744 76.538047-2.202791-0.11907-4.381767-0.321488-6.620279-0.321488-64.11907 0-116.093023 51.176186-116.093023 114.306976S206.765008 881.116279 270.884078 881.116279H696.558497c42.746047 0 77.395349-34.125395 77.395349-76.204651 0-26.50493-13.740651-49.818791-34.577861-63.464186z" fill="#CCCCCC" /><path d="M176.961846 598.230326a358.483349 358.483349 0 0 1-35.756652-46.222884c-64.75014 15.812465-112.925767 74.966326-112.925767 145.741395 0 21.813581 4.703256 42.460279 12.954791 61.154233A66.821953 66.821953 0 0 0 11.907334 814.425302C11.907334 851.253581 41.234218 881.116279 77.395706 881.116279h47.877954A189.55907 189.55907 0 0 1 83.349194 762.046512c0-69.798698 37.626047-130.655256 93.612652-163.816186z" fill="#999999" /><path d="M423.01952 271.193302C323.227148 299.567628 250.046869 391.191814 250.046869 500.093023c0 16.348279 1.833674 32.232186 5.024744 47.627907h11.478326a224.803721 224.803721 0 0 1 129.714604-47.246883 250.713302 250.713302 0 0 1 52.819349-39.674047 236.067721 236.067721 0 0 1-35.328-124.427907c0.011907-22.623256 3.369674-44.436837 9.263628-65.178791z" fill="#666666" /><path d="M345.302683 833.488372h95.255814a23.813953 23.813953 0 0 0 0-47.627907h-95.255814a23.813953 23.813953 0 0 0 0 47.627907z m261.953488 47.627907H345.302683a23.813953 23.813953 0 0 0 0 47.627907h261.953488a23.813953 23.813953 0 0 1 0 47.627907 23.813953 23.813953 0 0 0 0 47.627907 71.44186 71.44186 0 0 0 0-142.883721z m95.255814-190.511628a23.813953 23.813953 0 0 0 0 47.627907 23.813953 23.813953 0 0 1 0 47.627907H535.814311a23.813953 23.813953 0 0 0 0 47.627907h166.697674a71.44186 71.44186 0 0 0 0-142.883721z" fill="#48A0DC" /></svg>